<?xml version="1.0" standalone="no"?>
<!DOCTYPE svg PUBLIC "-//W3C//DTD SVG 20010904//EN"
 "http://www.w3.org/TR/2001/REC-SVG-20010904/DTD/svg10.dtd">
<svg version="1.0" xmlns="http://www.w3.org/2000/svg"
 width="100.000000pt" height="100.000000pt" viewBox="0 0 100.000000 100.000000"
 preserveAspectRatio="xMidYMid meet">
<metadata>
Created by potrace 1.14, written by Peter Selinger 2001-2017
</metadata>
<g transform="translate(0.000000,100.000000) scale(0.100000,-0.100000)"
fill="#000000" stroke="none">
<path d="M433 881 c-52 -13 -122 -60 -154 -103 -83 -116 -70 -271 32 -368 48
-45 56 -43 84 21 17 37 18 42 3 50 -9 5 -25 24 -36 42 -102 165 109 337 253
206 11 -10 29 -16 40 -14 11 2 37 4 58 4 20 1 37 5 37 10 0 23 -73 100 -119
125 -55 29 -138 41 -198 27z"/>
<path d="M647 653 c-54 -18 -103 -69 -147 -151 -54 -100 -139 -238 -157 -254
-26 -24 -81 -29 -123 -11 -114 46 -142 171 -61 268 13 15 16 34 13 78 -2 31
-8 57 -12 57 -28 0 -98 -71 -128 -130 -30 -59 -33 -71 -29 -131 7 -113 59
-191 161 -240 49 -23 69 -27 120 -24 113 6 140 31 261 240 106 184 119 198
178 198 143 -3 217 -166 123 -271 -40 -45 -74 -56 -186 -58 -141 -2 -140 -2
-140 -17 0 -7 -16 -32 -36 -56 l-37 -42 167 2 c159 2 170 3 225 29 212 100
214 392 3 499 -54 28 -136 33 -195 14z"/>
</g>
</svg>
